<svg id="Layer_1" data-name="Layer 1" xmlns="http://www.w3.org/2000/svg" viewBox="0 0 512 512"><defs><style>.cls-1{fill:#26272d;}.cls-2{fill:#c8c8c8;}</style></defs><title>favicon</title><circle class="cls-1" cx="256" cy="256" r="256"/><path class="cls-2" d="M244.59,367.28q-45.24,0-69.3-22.22t-24-63q0-38.73,17.12-75.82t46.88-60.34q29.76-23.23,65.64-23.23,20.79,0,37.5,8.76a67.23,67.23,0,0,1,26.29,24.05,62.86,62.86,0,0,1,9.58,34,66,66,0,0,1-.41,8.56l-45.25,7.34a71.27,71.27,0,0,0,2-15.49q0-15.49-8.76-25.07t-24.26-9.58q-24,0-44.43,20.79t-32.41,51.77q-12,31-12,58.7,0,24.87,13.86,36.69t43.21,11.82a110.08,110.08,0,0,0,32.61-5.3q17.11-5.29,26.9-13L318.79,340Q269,367.28,244.59,367.28Z"/></svg>